<svg id="图层_1" data-name="图层 1" xmlns="http://www.w3.org/2000/svg" xmlns:xlink="http://www.w3.org/1999/xlink" viewBox="0 0 750 1836.42"><defs><style>.cls-1{fill:none;}.cls-2{clip-path:url(#clip-path);}.cls-3{opacity:0.12;}.cls-4{clip-path:url(#clip-path-2);}.cls-5{fill:#379aff;}.cls-6{fill:#fff;}.cls-7{fill:#eaa546;}.cls-8{fill:#37bdff;}.cls-9{fill:#0e184d;}.cls-10{fill:#4cffff;}.cls-11{fill:#ffa546;}.cls-12{fill:#f0f;}.cls-13{clip-path:url(#clip-path-3);}.cls-14{fill:#7cf9fb;}.cls-15{fill:#ff5064;}.cls-16{clip-path:url(#clip-path-4);}.cls-17{fill:#881a11;}.cls-18{clip-path:url(#clip-path-5);}.cls-19{fill:#21f97b;}.cls-20{clip-path:url(#clip-path-6);}.cls-21{clip-path:url(#clip-path-7);}.cls-22{fill:#4998f6;}.cls-23{fill:#eea244;}.cls-24{fill:#e64c63;}.cls-25{clip-path:url(#clip-path-8);}.cls-26{fill:#7cf7f9;}.cls-27{fill:#e33af3;}.cls-28{fill:#841a11;}.cls-29{clip-path:url(#clip-path-9);}.cls-30{fill:#eca044;}.cls-31{clip-path:url(#clip-path-10);}</style><clipPath id="clip-path"><rect class="cls-1" x="-1205.29" width="750" height="696.92"/></clipPath><clipPath id="clip-path-2"><rect class="cls-1" y="516.84" width="750" height="741.75"/></clipPath><clipPath id="clip-path-3"><path class="cls-1" d="M374,854.85l-27.25-21.47S300.42,795.74,299,795.49s-33.17-2.39-33.17-2.39l-23,47.57-4.8,31.38S266,913.93,266.6,914.18s39.5,9.84,40.25,9.71,52.6-37.33,54-38.22S374,854.85,374,854.85Z"/></clipPath><clipPath id="clip-path-4"><path class="cls-1" d="M52,854.85,79.2,833.38s46.36-37.64,47.74-37.89,33.18-2.39,33.18-2.39l22.95,47.57,4.79,31.38S160,913.93,159.37,914.18s-39.49,9.84-40.25,9.71-52.59-37.33-54-38.22S52,854.85,52,854.85Z"/></clipPath><clipPath id="clip-path-5"><path class="cls-1" d="M228.38,737.54c-5.65,7-32.95,38.14-69.26,30.35-.91-.19-2.16.48-.85,1.81,6.26,6.37,23.38,25.7,48.87,14.64,22-9.56,24.13-38.59,23.12-46.35C230.12,736.84,229.09,736.65,228.38,737.54Z"/></clipPath><clipPath id="clip-path-6"><path class="cls-1" d="M651.6,836c10.06-.84,55.95-6.77,71.36-45.32.39-1,1.8-1.71,2.22.34,2,9.78,9.25,37.72-16.91,54.47-22.59,14.46-50.85-1.68-57.42-7.45C649.87,837.19,650.33,836.11,651.6,836Z"/></clipPath><clipPath id="clip-path-7"><rect class="cls-1" width="750" height="696.92"/></clipPath><clipPath id="clip-path-8"><path class="cls-1" d="M646.23,574.9l-21.61-41.67S588.47,461,586.9,459.88s-39.55-21.47-39.55-21.47L492.5,484.25l-23.42,36s11,67.16,11.61,67.83,43.2,34.17,44.2,34.43,85.68-16.67,87.88-17S646.23,574.9,646.23,574.9Z"/></clipPath><clipPath id="clip-path-9"><path class="cls-1" d="M597.92,239.29c11.35,14.17,66.25,76.71,139.26,61,1.83-.4,4.35,1,1.71,3.64-12.59,12.79-47,51.67-98.26,29.42-44.27-19.21-48.52-77.59-46.51-93.19C594.42,237.9,596.49,237.51,597.92,239.29Z"/></clipPath><clipPath id="clip-path-10"><path class="cls-1" d="M176.72,368.07s57.2,12.23,91.68,42.17l1.73,112.64-53,34.42s-103.81-4.87-109.65-11.68S90.61,409.17,93.39,408.24s30.66-18.17,33.57-20.82S176.72,368.07,176.72,368.07Z"/></clipPath></defs><title>EwebH</title><g class="cls-2"><path d="M-433,627s71-299.47,285.29-270.62c76.88,10.35,209.89,26.77,204,101.28C42.73,627.87-433,627-433,627Z"/></g><rect width="750" height="1836.42"/><g class="cls-3"><g class="cls-4"><path class="cls-5" d="M83.13,768.18c15.51-6.94,32.36-5.12,53,11.6,20.2,16.36,21.36,40.68-9.16,82.71C67.92,943.83-14.75,970.79-14.75,970.79l-46.38-28.06s86-52.21,110.77-93.21C62.7,827.93,56.76,780,83.13,768.18Z"/><polygon class="cls-6" points="-56.79 914.6 20.07 965.99 6.62 976.3 54.31 1004.98 44.61 1041.58 -74.13 950.67 -56.79 914.6"/><polygon class="cls-7" points="-51.85 926.21 7.28 966.45 -6.15 976.93 29.96 999.09 25.89 1020.42 -69.1 946.95 -51.85 926.21"/><path d="M5.57,791.05c19.17-3.5,38-2.15,75.69,19.29,25.93,14.74,66.9,42.3,84.86,52s38.62,32.77,37.09,64-18.3,57.17-47.81,71.9-56.78,25.25-92.31,42.39c-43.26,20.87-46.94,28.33-74.43,58.37l-42.1-60.8s25.68-33.37,59.71-55.51c25.65-16.68,72.88-36.3,72.88-36.3s-46.74,6.87-80.86-16.65C-39,904-51.59,858.86-40.54,830-28.34,798.24,5.57,791.05,5.57,791.05Z"/><path class="cls-8" d="M120.88,843.88c27.26,14.9,61.3,29.59,73.08,61.32s-12.41,72.87-50.06,91.2-83.64,35.15-107.23,48.26c-32.28,17.93-50.11,47.71-50.11,47.71l-34-49s23.72-32.27,55.46-53C26.27,978.49,64.3,958.16,113,938.11c0,0-44.86,6.49-84.94-4.65-47.89-13.3-79.86-79.73-53.54-110.33C23.66,766,82.1,822.66,120.88,843.88Z"/><path class="cls-9" d="M-59.26,1002.93l2.77,1.3A57,57,0,0,1-42,989.8,57.25,57.25,0,0,1,31.62,997l2.52-1.74a9.39,9.39,0,1,1,10.69,15.43l-2.53,1.75a57.23,57.23,0,0,1-19.18,71.47,57.12,57.12,0,0,1-18.59,8.46l.25,3.05a9.38,9.38,0,0,1-8.59,10.12A9.37,9.37,0,0,1-13.93,1097l-.26-3.07a57.09,57.09,0,0,1-42.31-24.45,57.07,57.07,0,0,1-8-48.22l-2.78-1.31a9.39,9.39,0,0,1-4.48-12.5A9.38,9.38,0,0,1-59.26,1002.93Z"/><circle class="cls-10" cx="-6.88" cy="1036.8" r="47.99"/><circle cx="6.67" cy="1036.74" r="33.42"/><polygon class="cls-6" points="16.43 1039.83 11 1037.03 16.68 1038.13 26.37 1023.1 24.65 1040.9 30.24 1043.64 24.28 1042.49 14.64 1055.84 16.43 1039.83"/><path d="M102.71,1019.56s2.57-3.77,5.28-8.06c3-4.78,4.5-7.48,5.2-8.9a21.23,21.23,0,0,0-3.06-2.92,39.71,39.71,0,0,0-3.75-2.69,8.17,8.17,0,0,1-2.09-12.11l34.79-43a8.18,8.18,0,0,1,14.53,5.3l-.18,9.7,23.1-11.17A8.17,8.17,0,0,1,188,955l-6.16,25,13.31-1.4a8.18,8.18,0,0,1,7.48,12.93l-31.84,43.88a8.16,8.16,0,0,1-5.89,3.34l-.51,0a8.15,8.15,0,0,1-5.88-2.27c-4.39-4.21-16.82-15.91-21.58-19.39a24,24,0,0,0-4.79-2.85c-4,3.66-13.27,12.28-17.13,15.87a8.17,8.17,0,0,1-12.32-10.59Z"/><path class="cls-11" d="M196,986.74l-24.89,2.63,9-36.34L145,970l.43-23-34.78,43s12,7.31,11.12,13c-.6,4-12.31,21.18-12.31,21.18s16.73-15.56,19-17.53,7.09-.68,13.35,3.89,22.42,20.09,22.42,20.09Z"/><polygon class="cls-6" points="133.49 991.79 150.41 972.62 135.71 993.66 142.03 1000.31 134.17 995.79 117.1 1014.98 131.67 993.94 125.47 987.29 133.49 991.79"/><path d="M211.59,836.18l-4.89,4.74-29.46,15.4a18.25,18.25,0,0,0-1.81-1.82s.35,7.22-4.45,7.93c-3.57.53-12.45-5-13.34-6.72l-1.74-3.36-39.33-3.11,2.05,9c.25,1.11,6.45,27.41,28.33,39.47a70.23,70.23,0,0,0,33.64,8.79,64.7,64.7,0,0,0,8.25-.53c13.55-1.78,25.26-7.93,32.11-16.9C232.51,874,229,854.2,211.59,836.18Z"/><path d="M345.14,710.15c-31.75-15.31-76.3-23.07-132.43-23.07S112,694.84,80.28,710.15C43,728.1,24.15,755.9,24.15,792.78c0,48.37,16,62,17.8,63.42a6.82,6.82,0,0,0,8.36-.06L79.2,833.38l10.38,9a6.77,6.77,0,0,0,2.91,1.48c2.36.54,58.6,13.4,120.22,13.4s117.86-12.86,120.22-13.4a6.77,6.77,0,0,0,2.91-1.48l10.38-9,28.89,22.76a6.83,6.83,0,0,0,8.36.06c1.82-1.4,17.8-15.05,17.8-63.42C401.27,755.9,382.38,728.1,345.14,710.15Z"/><path class="cls-12" d="M212.71,693.89C109.79,693.89,31,720.63,31,792.78c0,46.41,15.14,58,15.14,58l33.29-26.23L94,837.17s57.14,13.23,118.69,13.23S331.4,837.17,331.4,837.17L346,824.56l33.3,26.23s15.13-11.6,15.13-58C394.46,720.63,315.63,693.89,212.71,693.89Z"/><path d="M86.9,842.61a3.61,3.61,0,0,1-3.22-2l-7.51-14.41c-9.4-19.12-11.44-36.36-6.08-51.32,7.22-20.15,25.2-28.49,26-28.84a3.63,3.63,0,0,1,3,6.61c-.28.13-16.06,7.6-22.17,24.77-4.62,13-2.69,28.32,5.76,45.5l7.47,14.34a3.63,3.63,0,0,1-1.55,4.9A3.55,3.55,0,0,1,86.9,842.61Z"/><path d="M338.52,842.61a3.55,3.55,0,0,1-1.67-.41,3.63,3.63,0,0,1-1.55-4.9l7.51-14.42c8.41-17.1,10.34-32.4,5.72-45.42-6.13-17.24-22-24.7-22.17-24.77a3.63,3.63,0,0,1,3-6.61c.77.35,18.75,8.69,26,28.84,5.36,15,3.33,32.2-6,51.24l-7.55,14.49A3.61,3.61,0,0,1,338.52,842.61Z"/><g class="cls-13"><path class="cls-9" d="M379.88,848.09s-11.06,13-18.92,21.06c-15.39,15.77-17.56,17.06-32.54,29.77-27.3,23.17-55,12.51-43.58-8.77,2-3.7,6-5.09,9.5-9.11,0,0-2.72,1.62-6.47,3.39-21.62,10.24-39.39-6.68-39.57-21.26-.28-22.7,20.23-13.62,33.12-24.18-20.88-.78-23.23-24.86-11.94-33.64,21.83-17,50.68,28.52,71.21,27.19,19.69-1.27,29.8-20.23,29.8-20.23Z"/><path class="cls-14" d="M365.15,826.29s-9.58,21.67-36.73,11.36c-14.82-5.63-33.21-25.52-42.87-27.23-12.35-2.19-17.63,10.8-15.44,17.16a13.14,13.14,0,0,1-3-12.75c2.4-8.54,13.78-14.38,25.63-7.34,13.61,8.09,31.12,26.49,45.1,28.46,13.79,1.94,23.18-11.71,25.89-14.32Z"/><path class="cls-14" d="M286.62,841.46l4.49,2.18c-9.44,6.85-16.91,9-26.17,12-7.5,2.45-12.53,8.38-7.76,18.38,0,0-4.89-7.44-5.19-12.34-.43-7.15,4.64-9.07,9.38-10.28C267.61,849.78,276.62,847.87,286.62,841.46Z"/><path class="cls-14" d="M290.48,907.08s-8.13-9.89-1.86-16c7.68-7.5,12.4-12.56,12.4-12.56l3.76-.39s-7.53,7.62-13.8,15.41C287.42,898,289.16,902.82,290.48,907.08Z"/></g><path d="M250.71,836.18c-14.17-16-32.45-21.15-55.17-31.89-33.75-16-94.13-38.35-80.25-98.89,4.76-20.78,48.86-52.79,108.15-66.71l9.2-2.16-58.3-91s-63.42,12-113.74,76.56C39,649.8-11.22,640.11-9.15,675.79c2.67,46,74.7,131.69,133.37,152.69,44.71,16,82.46,37.57,102.36,58.36,5.14,5.37,6.43,10.78,11.3,10.78,1.21,0,3.26,1.9,7.18-.59C247.92,895.21,279.51,868.73,250.71,836.18Z"/><path class="cls-15" d="M227.31,531.69S51.85,520.09,10.86,618.24C-27.84,710.9,77.74,807.06,125.1,823c43.17,14.53,84.67,36.43,106.4,59.13s26.09-25.69,7.6-41.22c-15.51-13-34.32-23.66-57.38-32.11-41.84-15.34-83-57.7-71.61-102,6.44-24.92,42.76-52.75,101.57-66.56Z"/><path class="cls-9" d="M275.71,536.53l-2.65,2.11A63.12,63.12,0,0,0,176.67,553l-3.14-1.25A10.35,10.35,0,1,0,165.94,571l3.14,1.24a63.15,63.15,0,0,0,60.65,76.29l.49,3.34a10.35,10.35,0,0,0,20.47-3.06l-.5-3.35a63.09,63.09,0,0,0,35.74-90.65l2.65-2.11a10.35,10.35,0,0,0-12.87-16.2Z"/><circle class="cls-14" cx="228.46" cy="585.45" r="53.76"/><circle cx="213.66" cy="588.85" r="37.43"/><polygon class="cls-6" points="203.81 594.71 209.02 590.27 203.11 592.92 188.69 579.01 195.11 597.98 189.72 602.39 195.93 599.61 209.85 611.72 203.81 594.71"/><path class="cls-15" d="M239.1,840.92c40.06,41.42-13.33,74.61-56.46,50.85-19.45-10.71-25-35-25-35L184,858.84s5.71,11,12.27,13,14.91-5.39,7.08-12.28l8.94-18.69Z"/><g class="cls-16"><path class="cls-9" d="M46.1,848.09s11,13,18.92,21.06c15.38,15.77,17.56,17.06,32.54,29.77,27.3,23.17,55,12.51,43.58-8.77-2-3.7-6-5.09-9.5-9.11,0,0,2.72,1.62,6.47,3.39,21.62,10.24,39.39-6.68,39.57-21.26.28-22.7-20.23-13.62-33.12-24.18,20.88-.78,23.22-24.86,11.93-33.64-21.82-17-50.67,28.52-71.2,27.19-19.69-1.27-29.8-20.23-29.8-20.23Z"/><path class="cls-14" d="M60.83,826.29S70.41,848,97.56,837.65c14.82-5.63,33.21-25.52,42.86-27.23,12.36-2.19,17.63,10.8,15.44,17.16a13.13,13.13,0,0,0,3-12.75c-2.4-8.54-13.78-14.38-25.63-7.34C119.59,815.58,102.07,834,88.1,836c-13.79,1.94-23.19-11.71-25.89-14.32Z"/><path class="cls-14" d="M139.35,841.46l-4.48,2.18c9.44,6.85,16.91,9,26.16,12,7.51,2.45,12.54,8.38,7.77,18.38,0,0,4.89-7.44,5.18-12.34.44-7.15-4.63-9.07-9.38-10.28C158.37,849.78,149.35,847.87,139.35,841.46Z"/><path class="cls-14" d="M135.5,907.08s8.13-9.89,1.86-16c-7.68-7.5-12.4-12.56-12.4-12.56l-3.76-.39s7.53,7.62,13.8,15.41C138.56,898,136.82,902.82,135.5,907.08Z"/></g><path d="M147.68,744.87c16.09,18.53,41.54,15.53,55.83.09,14.81-16,17.42-40.65-.82-56.85-16.3-14.48-42.27-16.29-56.19.49C130.55,707.84,133.39,728.41,147.68,744.87Z"/><circle class="cls-6" cx="175.62" cy="716.98" r="33.88"/><circle cx="175.62" cy="716.98" r="16.24"/><path d="M227.49,730.8c-9.76,12.55-36.51,40.82-74.34,32.27-2.34-.52-5.38,1.5-2,5.32,9.83,11,31.76,33.73,56.6,22.38s30.57-36.77,25.88-58.63C233.15,729.78,230.16,727.36,227.49,730.8Z"/><path class="cls-17" d="M228.38,737.54c-5.65,7-32.95,38.14-69.26,30.35-.91-.19-2.16.48-.85,1.81,6.26,6.37,23.38,25.7,48.87,14.64,22-9.56,24.13-38.59,23.12-46.35C230.12,736.84,229.09,736.65,228.38,737.54Z"/><g class="cls-18"><path class="cls-6" d="M224.63,741.77s3,4.26,2.14,7.58c-1.19,4.48-3.75,6.53-9.69-.82Z"/><path class="cls-6" d="M207.92,754.76s5.53,8.37,9,6.53c5-2.68,7-5.17-.37-12.41Z"/><path class="cls-6" d="M197.7,760.54s5.06,10.54,9.56,8.65c5.68-2.39,6.76-6,.05-14.28Z"/><path class="cls-6" d="M187.06,765s2.45,11.62,8.92,9.51c5.86-1.92,6.8-4.68,1-13.8Z"/><path class="cls-6" d="M175.83,767.19s1.89,12.38,7.41,11.3c6.62-1.29,6.93-4.27,3-13.56Z"/><path class="cls-6" d="M166.28,768.19s-.11,7.2,5.45,9c5.14,1.65,6.29-2.84,3.73-9.91Z"/></g><path d="M62.92,719.47c-4.78-26.62.62-54.29,16-76.25s39.55-37.59,66.16-42c25.8-4.3,50.72.41,72.41,15.09a23.36,23.36,0,0,1,3.66,3.07h0a7.21,7.21,0,0,1,.81,9.11l-.37.55a17.92,17.92,0,0,1-2.51,2.92c-7.27,6.82-41,38.92-60.95,67.33-19.45,27.67-37.87,70.33-42.74,81a19.2,19.2,0,0,1-3,4.72l-.07.07a5.74,5.74,0,0,1-6.3,1.6h0a20.76,20.76,0,0,1-5.63-3.09C80,767.88,67.49,745,62.92,719.47Z"/><path class="cls-11" d="M107,776.28s23.79-49.12,46.18-80.88,60.66-70.68,60.66-70.68A92.72,92.72,0,1,0,107,776.28Z"/><path d="M108.17,573.66A4.62,4.62,0,0,1,110.6,566c11.92-2.63,35.39-4.2,51.74,4.87C185,583.48,188.6,605,187.49,615.85c-.65,6.26-5.4,7.74-9.54,7.78-6.37.07-16.48-.46-25.1,1.09a173.34,173.34,0,0,0-24.26,6.82,4.29,4.29,0,0,1-5.6-5c2-8.39,5.73-18.35,2-28.72C121.52,587.93,113.93,580,108.17,573.66Z"/><path class="cls-11" d="M112.36,571.78s31.57,21.08,15.25,54.79c0,0,24.37-12.53,51.85-9.49C180.82,612.57,181.46,559.75,112.36,571.78Z"/><polygon class="cls-6" points="166.59 709.54 175.24 717.54 178.28 727.51 170.38 719.98 166.59 709.54"/><polygon class="cls-6" points="172.15 718.3 178.11 715.31 173.31 719.6 167.69 722.28 172.15 718.3"/><polygon class="cls-6" points="215.09 759.95 226.19 743.34 217 761.17 222.59 765.65 216.03 762.97 204.81 779.62 213.9 761.8 208.41 757.3 215.09 759.95"/><path class="cls-5" d="M701.89,911.15c-11.5-11.15-27-15-50.71-6.81-23.16,8-32,29.16-18.53,76.23,26.12,91.09,90.68,141.61,90.68,141.61l50.13-9.91s-59.34-74-68.11-118.27C700.74,970.67,721.45,930.11,701.89,911.15Z"/><path class="cls-19" d="M638.59,662.36s-60.93,6.15-68,58.7c-9.75,72.39,24,134.3,106.55,153.46a233,233,0,0,1,91.59,43.22L751.31,701.66Z"/><path class="cls-9" d="M634.49,782.47a79.19,79.19,0,0,1-11.91,17.83c-10.75,12-34.06,5.18-45.51,4.87-29.05-.79-35.84,36.28-14.09,42.37,8.62,2.41,22.72-5.9,25.71-8.89-3.09,3.61-8.1,7.28-15.88,11.84-18.48,10.8-20.29,23.65-11.11,35.46,14.94,19.23,41.53.5,45.77-8.14.39,21.2,17.3,28.7,29.29,20.25,23.56-16.57-.09-39.69,3.68-64,3.1-20,28-29.51,28-29.51Z"/><path class="cls-10" d="M650.55,802.21S630,813.33,627.69,834.63c-1.79,16.17,9.32,36.08,6.56,45.75-3.33,11.65-17.45,10.33-22.57,5.71,0,0,4.34,8.28,12.7,8.58,10.35.37,17.91-8.91,16.26-19.49-2.5-16-10.14-31.44-6.37-45.42,3.71-13.8,16.58-22.87,20.13-24.37Z"/><path class="cls-10" d="M607.23,871.91l-.25-5.1a89.73,89.73,0,0,1-20.46,13.25c-7.36,3.37-18.11,4.29-24.45-2.77,0,0,4.51,10.47,14.25,10.87C583.86,888.47,595.39,883.76,607.23,871.91Z"/><path class="cls-10" d="M557.43,835.1s4,7.17,12.09,6.42c8.91-.82,18.79-5.6,18.79-5.6l0-4.87S568.62,840.85,557.43,835.1Z"/><path class="cls-15" d="M589.45,616.67S379.2,705.9,428,800.06c23.43,45.2,95.26,53.6,118.92,56.89,28.63,4,65.68,13.63,84.06,27.13,24.29,17.83,34.88,55.8,39,78.11L697.25,957s-11.13-46-28-68.79c-19.86-26.81-42.86-40.2-84-49.34-31.57-7-58.15-29.65-56.84-60.8C530,740.71,561.33,709.45,608.5,675Z"/><path class="cls-12" d="M702.58,883.54c-.27,22.54-12.76,35.82-68.6,68.53-32.52,19,51.15,94.47,142.7,86.46L745.09,879C726.33,890.78,702.58,883.54,702.58,883.54Z"/><path class="cls-9" d="M585.13,710.55l1.78-2.63a59.47,59.47,0,0,0,82.57-40.1l3.18.22a9.74,9.74,0,1,0,1.39-19.44l-3.17-.23a59.47,59.47,0,0,0-76-51.46l-1.39-2.86a9.75,9.75,0,0,0-17.54,8.51l1.4,2.88A59.41,59.41,0,0,0,570.78,697L569,699.62a9.75,9.75,0,1,0,16.14,10.93Z"/><circle class="cls-10" cx="614.03" cy="652.59" r="49.83"/><circle cx="626.18" cy="645.48" r="34.7"/><polygon class="cls-6" points="633.27 637.57 629.89 642.93 634.38 638.95 650.99 647.26 640.05 632.26 643.59 626.86 638.88 631.04 623.2 624.2 633.27 637.57"/><path d="M785,964.6c-10.68-15-24.29-26.37-63.89-36.62-27.22-7.05-73-15.28-91.53-20.53s-47.65-3.17-67.11,19-25.14,50.7-14.83,80,21.85,54.36,34.65,89.28c15.57,42.51,13.17,50,12.05,88.34l68.4-13.51s4.53-39.44-4-76.75c-6.41-28.12-25.5-72.4-25.5-72.4s27.13,35.32,65.65,41.8c42.17,7.08,80.27-15.22,91.7-42C803.21,991.72,785,964.6,785,964.6Z"/><path class="cls-8" d="M672.27,924.67c-28.23-7.8-60.91-20.2-89.7-6.46s-39.43,57.46-26,94.57,33.53,78.68,40.89,103c10.08,33.32,2.6,65.17,2.6,65.17l55.17-10.9s5.12-37.41-2.77-72.24c-4.53-20-16.93-58.7-36.72-104.24,0,0,26.1,33.83,60.53,52.61,41.14,22.42,106.37-1.55,108.64-39.54C789.18,935.77,712.44,935.77,672.27,924.67Z"/><path class="cls-9" d="M783.12,1069.94s-31.45-19.27-47.38-26.23c-14.43-6.31-32.59,8.48-42.76,13.18-25.78,11.92-46.18-18.75-29-32.61,6.81-5.49,22.68-3.47,26.51-1.94-4.17-2-10.07-3.41-18.83-4.5-20.76-2.58-27.35-13.42-23.66-27.56,6-23,37.11-16.47,44.25-10.36-7.83-19.18,4.46-32.44,18.49-29.49,27.55,5.8,14.55,30.18,27.33,50.6,10.5,16.77,51.37,26.1,51.37,26.1Z"/><path class="cls-10" d="M784.77,1059.68S749,1031,724.58,1032.06c-15.88.72-32.66,15-42.49,15.36-19.3.6-18.6-15.22-15.19-21,0,0-7.07,5.8-5.7,13.86,1.7,10,15.33,16.75,27.14,12.26,14.84-5.64,28.08-15.94,42.21-15.11,13.93.82,51.28,24.63,53.42,27.72Z"/><path class="cls-10" d="M689.76,1016.74l-1.52-5a78.89,78.89,0,0,1-21.59-5c-7.39-2.83-15.4-9.69-14.82-18.95,0,0-4.05,10.18,2.18,17.38C660.9,1013.08,677.33,1014.06,689.76,1016.74Z"/><path class="cls-10" d="M706.65,954.45s-12.07,1.94-13,11.63c-.62,6.72,1.77,15.15,1.77,15.15l4.86,1.71S692.71,962.09,706.65,954.45Z"/><path class="cls-6" d="M721.81,999.1c-10.32.41-13.25,7-10.44,16.14,2.91,9.42,20.17,10.66,24.88,3.82C740.69,1012.61,734.39,998.6,721.81,999.1Z"/><path class="cls-8" d="M714.68,1014.8l17.43,5.78-11-12.68,11.27,2.68c-1.34-1.52-7.56-8-9.33-11.48h-1.27c-10.32.41-13.25,7-10.44,16.14a10.52,10.52,0,0,0,5.39,6.08Z"/><path d="M708.74,765.71c7.16,26.49-11.51,48.23-34.74,51.85-24.09,3.76-48.59-9.19-52.24-36.21C618.49,757.19,633,732,657.27,729.51,685.06,726.71,702.38,742.18,708.74,765.71Z"/><circle class="cls-6" cx="665.43" cy="774.23" r="37.88"/><circle cx="665.43" cy="774.23" r="18.15"/><path d="M645.91,831c17.73-1.22,60.64-8.42,76.31-48.85,1-2.49,4.75-4,6.16,1.49,4.06,16,11.48,50.51-14.53,66.48s-53.2,5.43-70.55-12.56C641.42,835.6,641.05,831.32,645.91,831Z"/><path class="cls-17" d="M651.6,836c10.06-.84,55.95-6.77,71.36-45.32.39-1,1.8-1.71,2.22.34,2,9.78,9.25,37.72-16.91,54.47-22.59,14.46-50.85-1.68-57.42-7.45C649.87,837.19,650.33,836.11,651.6,836Z"/><g class="cls-20"><path class="cls-6" d="M657.86,835.17s2.08,5.46,5.7,6.71c4.9,1.69,8.4.6,5.28-9.5Z"/><path class="cls-6" d="M680.34,827.77s4.32,10.35.47,12.39c-5.61,3-9.17,3.27-11.28-8.09Z"/><path class="cls-6" d="M692.08,821.9s6.62,11.26,2.06,14.26c-5.76,3.78-9.82,2.5-13.29-8.86Z"/><path class="cls-6" d="M702.89,814.82s9.25,9.53,3.26,14.21c-5.43,4.24-8.58,3.39-13.45-7.65Z"/><path class="cls-6" d="M711.89,805.75s10.31,9.47,5.86,13.92c-5.32,5.34-8.28,3.76-14.44-5.68Z"/><path class="cls-6" d="M718.78,797.51s6.75,4.39,4.94,10.66c-1.68,5.8-6.56,4.07-11.52-2.72Z"/></g><path d="M742.46,677c-19.92-21.27-47.29-34.42-76.2-35.23s-57.94,9.94-78.9,30.07C567,691.34,555,715.9,553.76,744.09a24.58,24.58,0,0,0,.3,5.14h0a7.77,7.77,0,0,0,7.34,6.57l.72,0a19.76,19.76,0,0,0,4.13-.29c10.57-1.88,60-10.33,97.4-9.28,36.43,1,85.13,12.58,97.53,15.28a20.71,20.71,0,0,0,6,.42h.11a6.2,6.2,0,0,0,5.43-4.41h0a22.1,22.1,0,0,0,1-6.86C773.28,722.9,761.52,697.35,742.46,677Z"/><path class="cls-11" d="M763.16,751.62s-57.75-11.09-99.6-12.2-100.11,6.88-100.11,6.88a99.89,99.89,0,0,1,199.71,5.32Z"/><path d="M587.38,622.19a5,5,0,0,0-8.15-2.82c-10,8.6-26.41,27.87-29.11,47.82-3.75,27.69,12.49,44.62,22.62,50.67,5.82,3.47,10.16.32,12.86-3.23,4.16-5.46,10.21-14.53,17.11-21,6.52-6.1,15.33-12.39,21.51-16.56a4.62,4.62,0,0,0-.75-8.08c-8.55-3.68-19.54-6.88-26.12-16.75C591.11,642.9,589.13,631.22,587.38,622.19Z"/><path class="cls-11" d="M583.06,624.59s-2.13,40.84,37.5,48.45c0,0-26.52,13-41.59,38.68C574.19,710,528.16,676.53,583.06,624.59Z"/><polygon class="cls-6" points="664.17 761.22 666.19 774.24 673.55 783.27 671.49 771.24 664.17 761.22"/><polygon class="cls-6" points="668.82 771.84 662.33 775.5 669.3 773.73 675.3 770.18 668.82 771.84"/><polygon class="cls-6" points="705.49 815.81 714.37 795.31 703.18 814.75 695.58 812.22 702.07 816.75 693.24 837.38 704.47 818.04 712.03 820.48 705.49 815.81"/><path class="cls-9" d="M587.56,806.24c-9.79-1-23.09-3.21-32.44,8.92s-3.91,24.18,1,28.78,16.29,4.39,34.89-6.39l-2.76-10.27Z"/><path class="cls-10" d="M557.43,835.1a13.66,13.66,0,0,0,11.23,6.78c10.6.73,22.39-4.33,22.39-4.33h0S571.42,840.93,557.43,835.1Z"/><path d="M749.82,884.78s-20.81,10.67-39.39,9.43c0,0-8,21.19-23.76,31.65l-9.69-5s19.29-13.59,19.92-39.27c0,0,26.65,9.32,51.15-5.71Z"/><polygon class="cls-6" points="778.67 1085.95 694.03 1106.71 702.62 1120.18 651.13 1130.22 647.92 1165.77 782.42 1123.49 778.67 1085.95"/><polygon class="cls-7" points="770.56 1094.64 705.21 1111.24 713.73 1124.86 674.6 1132.85 671.33 1153.06 779.16 1118.58 770.56 1094.64"/><path class="cls-12" d="M640.72,1085.75l5.07,13.67,16.65-14.07.23,22.7,11.9-6.19-13.46,29.3s-6.91-4.35-9.65-2.45c-2,1.35-7.87,11.91-7.87,11.91s3.79-12.76,4.25-14.44-1.49-3.87-5.49-6-16.29-6.51-16.29-6.51Z"/><path class="cls-9" d="M671.09,1165.45l-2.73-.93a54,54,0,0,0-54.88-62.73l-.56-2.84a8.85,8.85,0,0,0-17.36,3.43l.56,2.84a54,54,0,0,0-26.89,78.89l-2.18,1.9a8.85,8.85,0,0,0,11.66,13.32l2.18-1.91a54,54,0,0,0,81.74-16.15l2.75.93a8.85,8.85,0,0,0,5.71-16.75Z"/><circle class="cls-10" cx="613.41" cy="1154" r="45.24"/><circle cx="604.27" cy="1145.06" r="31.5"/><polygon class="cls-6" points="595.65 1140.75 601.15 1142.42 596.59 1139.44 599.9 1122.91 589.38 1136.08 583.8 1134.26 588.59 1137.39 586.35 1152.76 595.65 1140.75"/><path d="M611.2,1046s-2.91-2.72-6.05-5.85c-3.49-3.5-5.27-5.52-6.14-6.59a18.19,18.19,0,0,1,2-3.08,36.57,36.57,0,0,1,2.67-3,7.12,7.12,0,0,0-.54-10.72l-37.92-30a7.15,7.15,0,0,0-11.37,7.31l2,8.24-21.83-5.09a7.14,7.14,0,0,0-8,10.15l10.06,20.15-11.61,1.36a7.14,7.14,0,0,0-3.89,12.45l35.57,31.28a7.14,7.14,0,0,0,5.66,1.72l.44-.07a7.16,7.16,0,0,0,4.58-3.07c2.92-4.43,11.27-16.79,14.66-20.67a20.85,20.85,0,0,1,3.53-3.35c4.11,2.35,13.67,7.91,17.65,10.23A7.14,7.14,0,0,0,611.2,1046Z"/><path class="cls-11" d="M525.36,1036l21.71-2.54-14.6-29.25,33.16,7.72-4.79-19.54,37.91,30s-8.78,8.53-7,13.19c1.28,3.31,14.56,15.68,14.56,15.68s-17.24-10-19.53-11.29-6.17.78-10.62,5.88-15.25,21.43-15.25,21.43Z"/><polygon class="cls-6" points="579.63 1028.28 561.53 1015.19 578.1 1030.3 573.99 1037.18 579.82 1031.82 598.06 1044.89 581.6 1029.76 585.6 1022.9 579.63 1028.28"/></g></g><g class="cls-21"><rect class="cls-22" x="-152.46" y="-54.32" width="1023.47" height="591.98"/><path d="M307.41,356.63c0-.06-2.61-5.83-5.29-12.44-3-7.35-4.34-11.45-5-13.58a29.52,29.52,0,0,1,4.95-3.26,62.13,62.13,0,0,1,5.84-2.79,11.43,11.43,0,0,0,5.89-16.19l-37.31-68.05A11.47,11.47,0,0,0,255.15,244L253,257.46,223.88,236.3a11.46,11.46,0,0,0-18.18,10L208,282.37l-18-5.24a11.47,11.47,0,0,0-13.53,16l33,68.48a11.49,11.49,0,0,0,7.3,6.08l.7.16a11.44,11.44,0,0,0,8.68-1.68c7.1-4.72,27.16-17.77,34.6-21.39a34,34,0,0,1,7.32-2.75c4.6,6.05,15.26,20.25,19.7,26.17a11.47,11.47,0,0,0,19.64-11.56Z"/><path class="cls-23" d="M186.76,288.13l33.7,9.81-3.32-52.37,44.21,32.14,5.12-31.88,37.32,68S285.47,321,285.22,329c-.18,5.7,11.72,32.29,11.72,32.29s-19.22-25.63-21.81-28.91-9.62-2.69-19.39,2.06-35.94,22.16-35.94,22.16Z"/><polygon class="cls-6" points="271.83 310.65 253.24 279.98 268.29 312.68 257.91 320.29 269.89 316 288.68 346.74 273.81 314.07 284.01 306.43 271.83 310.65"/><path d="M500.41,316.77C539,240,513.08-2.75,303.09-69.73-3.43-167.5-306.94,160.7-102.25,460.53l255-150.87s-6.1-160.14,110-141.65c71.36,11.37,68.78,135.43,71.89,167.64C405.41,339.39,482.31,352.85,500.41,316.77Z"/><path class="cls-24" d="M253.27,149.4c-171.52,0-108.12,255.1-108.12,255.1l-236.09,41C-252.46,225.58-68.34-30.36,112-59.26c131.2-21,242.61-.86,323.79,105.36s62.86,234.67,62.86,234.67-153.42,86.51-150.39,28.89S334.64,149.4,253.27,149.4Z"/><path d="M819.53,662.27S443.92,563-20,563c-118.65,0-215.45,99.26-215.45,99.26V357.79l64,140L85.66,423.68l733.87-69.23Z"/><g class="cls-25"><path class="cls-9" d="M657.22,569.83s-20.89,9.87-35.07,15.41c-27.77,10.85-31.18,11.23-56.73,18.54-46.59,13.33-74.78-15.26-48.84-35.13,4.51-3.45,10.27-2.91,16.8-5.93,0,0-4.25.48-9.87.57-32.37.56-44.83-30.22-36.91-48.29,12.31-28.14,32.53-5.5,54.32-11.33-25.31-12.62-14.77-43.6,4.05-48.13,36.39-8.76,46.56,63.44,72.61,73.26,25,9.42,48-8.32,48-8.32Z"/><path class="cls-26" d="M651.22,534.74s-23.9,21.37-51.61-6.49c-15.13-15.21-26.71-50-37.65-57.49-14-9.6-27.77,3.48-28.61,12.53a17.75,17.75,0,0,1,3.46-17.37c7.71-9.18,25-10,35.68,5.26,12.27,17.57,23.6,50,39.73,60.25,15.91,10.09,35.12-1.5,39.91-3.2Z"/><path class="cls-26" d="M546,509.62l4.31,5.19c-15.45,3.17-25.84,1.61-38.93.17-10.62-1.17-20.14,3.34-19.83,18.32,0,0-1.88-11.9.49-18.1,3.46-9.06,10.78-8.59,17.3-7.44C517.87,509.28,530.05,511.94,546,509.62Z"/><path class="cls-26" d="M514.09,592.67s-4.51-16.73,6.64-20.78c13.66-5,22.3-8.56,22.3-8.56l4.85,1.6s-13.53,5.2-25.61,11.31C515.41,579.7,514.84,586.69,514.09,592.67Z"/></g><path d="M40.77,446.6s53-47.22,117.47-95.31S333.35,235.93,417.84,207c98.7-33.8,146.09-10,156.22-9,18.68,1.74,28.72-4.23,83.32-24.2s133.16-46.3,222.68-49.46C978.89,120.8,1053.47,161,1080.83,237c24.8,68.91-13,190.17-178.39,288.81-149,88.83-249.4,83.6-249.4,83.6L594.49,490.3a5.38,5.38,0,0,1,3.12-8c35.28-9.91,51.67-.16,112.73-36.78l-146.2-50.7L280.4,417Z"/><path class="cls-27" d="M449,434.92s109.51,22.54,227.49,22.54c2.3,0,12.89,9.24,12.89,9.24s-16.83,9.34-74.09,31a4.15,4.15,0,0,0-2.6,6.27l43.75,87.63S906,575,1041.87,372.73c81.82-121.8-12.29-256-198-233.42-80.49,9.77-230,70.95-260.32,73.73-24.61,2.25-29.95-9.33-76.71-8.46-67.79,1.27-198.43,57-319.76,146.18-3.08,2.26-1.28,7.36,2.44,8.24,9.87,2.31,39.24,12.08,52.05,18,23.21,10.76,41.12,26.82,41.12,26.82Z"/><path d="M760.18,254c-32.35,37.27-83.53,31.23-112.26.18-29.77-32.18-35-81.74,1.64-114.31,32.78-29.12,85-32.76,113,1C794.63,179.58,788.93,220.94,760.18,254Z"/><circle class="cls-6" cx="704.01" cy="197.95" r="68.13"/><circle cx="704.01" cy="197.95" r="32.65"/><path d="M599.7,225.76c19.62,25.24,73.42,82.06,149.49,64.89,4.7-1.06,10.82,3,3.95,10.68-19.77,22.09-63.86,67.83-113.8,45-50.15-22.9-61.48-74-52.05-117.9C588.31,223.7,594.33,218.84,599.7,225.76Z"/><path class="cls-28" d="M597.92,239.29c11.35,14.17,66.25,76.71,139.26,61,1.83-.4,4.35,1,1.71,3.64-12.59,12.79-47,51.67-98.26,29.42-44.27-19.21-48.52-77.59-46.51-93.19C594.42,237.9,596.49,237.51,597.92,239.29Z"/><g class="cls-29"><path class="cls-6" d="M605.44,247.81s-6.06,8.57-4.29,15.23c2.39,9,7.54,13.15,19.48-1.65Z"/><path class="cls-6" d="M639.05,273.92s-11.11,16.84-18,13.14c-10.09-5.39-14.09-10.41.74-24.95Z"/><path class="cls-6" d="M659.59,285.56S649.42,306.75,640.38,303c-11.43-4.8-13.6-12.15-.11-28.73Z"/><path class="cls-6" d="M681,294.6s-4.94,23.36-17.93,19.12c-11.79-3.85-13.67-9.4-2.09-27.75Z"/><path class="cls-6" d="M703.59,298.93s-3.81,24.88-14.91,22.72c-13.31-2.59-13.93-8.59-6-27.27Z"/><path class="cls-6" d="M722.79,300.93s.22,14.48-11,18.08c-10.34,3.32-12.66-5.7-7.5-19.92Z"/></g><path d="M926.94,178.07c5.87-54.75-9.08-110.16-43.59-152.54S797.64-45.13,743-50.3c-53-5-103,8.12-144.89,41.06a48.12,48.12,0,0,0-7,6.77h0a14.68,14.68,0,0,0-.34,18.62l.85,1.06a37.06,37.06,0,0,0,5.5,5.56c15.74,12.81,88.82,73.15,133.47,128,43.49,53.4,87,137.37,98.46,158.45a39.49,39.49,0,0,0,6.84,9.14l.15.15a11.73,11.73,0,0,0,13,2.34h0a42.63,42.63,0,0,0,11-7.09C899.26,278.83,921.32,230.47,926.94,178.07Z"/><path class="cls-30" d="M845.66,299.79s-55.38-96.35-105.42-157.63S606.87,7.36,606.87,7.36c80.75-65.94,199.67-53.93,265.61,26.82S926.41,233.85,845.66,299.79Z"/><polygon class="cls-6" points="722.16 183.01 704.76 199.09 698.66 219.14 714.55 204 722.16 183.01"/><polygon class="cls-6" points="710.98 200.61 698.99 194.59 708.64 203.22 719.95 208.63 710.98 200.61"/><polygon class="cls-6" points="682.13 299.47 721.65 292.14 681.41 294.95 677.56 281.07 677.3 295.31 637.64 302.83 677.78 300.18 681.73 313.9 682.13 299.47"/><path d="M618.1,481.74c-1.86,0-3.21-1.32-4.71-2.64-29.13-25.73-68.91-22.16-95.47-23.89-31.24-2-61.23-19.88-82.49,5.71a5.51,5.51,0,0,1-8.47-7c23.12-27.82,53.44-42.85,87.69-42.53,47,.43,81.32,18,108.14,62a5.5,5.5,0,0,1-1.83,7.57A5.42,5.42,0,0,1,618.1,481.74Z"/><path d="M687.31,467.18a4.91,4.91,0,0,1-4.44-2.81c-1.16-2.45-4.23-7-1.78-8.19C780.26,409.1,862.72,290.64,863.45,289.6c1.57-2.22,8.74-1.1,11,.46a4.91,4.91,0,0,1,1.18,6.85c-.74,1.06-84.71,121.62-186.17,169.79A4.81,4.81,0,0,1,687.31,467.18Z"/><path d="M724.27,441.71c-22.65-7.17-46.73-9.79-76.18-9.79a195.75,195.75,0,0,0-72.6,13.42s17.63,9.42,41.3,46.72C616.79,492.06,726.24,442.33,724.27,441.71Z"/><path d="M265.7,485.58s-11.62-104.27,89.18-112.34c64.6-5.17,107.72,48.51,124.49,77.23Z"/><g class="cls-31"><path class="cls-9" d="M241.56,354.74s-24.47,8.83-40.17,15.74C170.67,384,167.66,386.43,141.52,401c-47.66,26.58-47.25,71.79-10.78,66.88,6.33-.85,10.47-5.87,18.08-8.68,0,0-3.77,3-8.31,7.41-26.16,25.39-11.51,59.78,9.2,67.83C181.94,547,180,512.86,201.92,500.11c-10.06,30.22,23,46.43,41.62,35,35.9-22.06-13.61-87.56-.75-116.15,12.34-27.42,44.81-31.71,44.81-31.71Z"/><path class="cls-26" d="M264.79,387.42s-36,2.08-35.84,46.34c.11,24.16,18.65,61,15.94,75.72-3.47,18.81-24.84,19.39-32.74,12.87a20,20,0,0,0,16.61,11c13.46,1.15,27.89-12,24.17-32.65-4.27-23.74-21.16-58.57-16.49-79.57,4.59-20.72,29.1-26.82,34.27-29.29Z"/><path class="cls-26" d="M201.17,491.36l-.72-7.56c-14.81,9.81-21.82,19.35-31.07,30.93-7.51,9.4-18.67,13.41-30.38,1.26,0,0,8,11,14.83,14,10,4.45,15.42-1.77,19.68-7.89C179.13,514,186.68,502.21,201.17,491.36Z"/><path class="cls-26" d="M109.59,450.78s9.76,16.9,21.86,11.22c14.82-6.95,24.55-11,24.55-11l2.58-5.14s-14.9,6.66-29.38,11.45C121,460,115,454.94,109.59,450.78Z"/></g><path d="M-66.27,316.77s21.43,79,91.35,120.91l-8.44-40.85Z"/><path class="cls-9" d="M-112.55,317.68l6.4,5.11a152.52,152.52,0,0,0-17.65,51.68A153,153,0,0,0-20,542.84L-21.19,551a25.09,25.09,0,1,0,49.61,7.51l1.23-8.11a153,153,0,0,0,149-130.06,152.7,152.7,0,0,0-1.55-54.59l7.62-3A25.09,25.09,0,1,0,166.46,316l-7.66,3A152.65,152.65,0,0,0,50.35,246.13,152.68,152.68,0,0,0-74.81,283.6l-6.42-5.13a25.09,25.09,0,0,0-35.27,3.95A25.09,25.09,0,0,0-112.55,317.68Z"/><circle class="cls-14" cx="30.35" cy="403.61" r="128.29"/><circle cx="46.14" cy="436.23" r="89.33"/><polygon class="cls-6" points="65.01 456.02 51.93 446.27 61.23 458.6 36.55 499.54 77.26 474.5 90.4 484.69 80.63 471.74 101.36 432.89 65.01 456.02"/></g></svg>